<?xml version="1.0" encoding="utf-8"?>
<!-- Generator: Adobe Illustrator 21.0.0, SVG Export Plug-In . SVG Version: 6.00 Build 0)  -->
<svg version="1.1" id="Слой_1" xmlns="http://www.w3.org/2000/svg" xmlns:xlink="http://www.w3.org/1999/xlink" x="0px" y="0px"
	 viewBox="0 0 34.5 33.8" style="enable-background:new 0 0 34.5 33.8;" xml:space="preserve">
<style type="text/css">
	.st0{filter:url(#a);}
	.st1{fill:#1F96C8;}
	.st2{fill:#FCFCFC;}
	.st3{fill:#D8D7DA;}
</style>
<filter  filterUnits="objectBoundingBox" height="143.3%" id="a" width="112.9%" x="-6.5%" y="-20.8%">
	<feOffset  dy="2" in="SourceAlpha" result="shadowOffsetOuter1"></feOffset>
	<feGaussianBlur  in="shadowOffsetOuter1" result="shadowBlurOuter1" stdDeviation="17"></feGaussianBlur>
	<feComposite  in="shadowBlurOuter1" in2="SourceAlpha" operator="out" result="shadowBlurOuter1"></feComposite>
	
		<feColorMatrix  in="shadowBlurOuter1" result="shadowMatrixOuter1" values="0 0 0 0 0.838985167 0 0 0 0 0.854037415 0 0 0 0 0.912096088 0 0 0 1 0">
		</feColorMatrix>
	<feMerge>
		<feMergeNode  in="shadowMatrixOuter1"></feMergeNode>
		<feMergeNode  in="SourceGraphic"></feMergeNode>
	</feMerge>
</filter>
<g transform="translate(-190 7)" class="st0">
	<path class="st1" d="M207.2-5.2c8.8,0,16,7.2,16,16c0,8.8-7.2,16-16,16s-16-7.2-16-16C191.2,1.9,198.4-5.2,207.2-5.2z"/>
	<path class="st2" d="M202.5,14.3l-4.1-2.1c-0.1,0-0.1-0.1-0.1-0.2c0,0,0-0.1,0.1-0.1L214,3.8c0.1-0.1,0.2,0,0.2,0.2l-2.7,13.6
		c0,0.1-0.1,0.1-0.2,0.1c0,0,0,0,0,0l-3.7-1.6c0,0-0.1,0-0.1,0l-4.7,2.7c-0.1,0-0.2,0-0.2-0.1c0,0,0,0,0-0.1v-4.2
		C202.6,14.4,202.5,14.3,202.5,14.3L202.5,14.3z"/>
	<path class="st3" d="M205.3,15.7l0-3.9c0,0,0,0,0-0.1l6.8-3.9c0.1,0,0.2,0.1,0.1,0.1l-5.2,4.9c0,0,0,0,0,0l-0.9,1.7l-0.7,1.2
		C205.4,15.8,205.3,15.8,205.3,15.7L205.3,15.7z"/>
</g>
</svg>
