<?xml version="1.0" encoding="utf-8"?>
<!-- Generator: Adobe Illustrator 21.0.0, SVG Export Plug-In . SVG Version: 6.00 Build 0)  -->
<svg version="1.1" id="Слой_1" xmlns="http://www.w3.org/2000/svg" xmlns:xlink="http://www.w3.org/1999/xlink" x="0px" y="0px"
	 viewBox="0 0 34.8 36.2" style="enable-background:new 0 0 34.8 36.2;" xml:space="preserve">
<style type="text/css">
	.st0{filter:url(#a);}
	.st1{fill:#DD4B39;}
	.st2{fill:#FFFFFF;}
</style>
<filter  filterUnits="objectBoundingBox" height="143.3%" id="a" width="112.9%" x="-6.5%" y="-20.8%">
	<feOffset  dy="2" in="SourceAlpha" result="shadowOffsetOuter1"></feOffset>
	<feGaussianBlur  in="shadowOffsetOuter1" result="shadowBlurOuter1" stdDeviation="17"></feGaussianBlur>
	<feComposite  in="shadowBlurOuter1" in2="SourceAlpha" operator="out" result="shadowBlurOuter1"></feComposite>
	
		<feColorMatrix  in="shadowBlurOuter1" result="shadowMatrixOuter1" values="0 0 0 0 0.838985167 0 0 0 0 0.854037415 0 0 0 0 0.912096088 0 0 0 1 0">
		</feColorMatrix>
	<feMerge>
		<feMergeNode  in="shadowMatrixOuter1"></feMergeNode>
		<feMergeNode  in="SourceGraphic"></feMergeNode>
	</feMerge>
</filter>
<g transform="translate(-355 8)" class="st0">
	<path class="st1" d="M372.2-5.2c8.8,0,16,7.2,16,16s-7.2,16-16,16c-8.8,0-16-7.2-16-16C356.2,1.9,363.4-5.2,372.2-5.2z"/>
	<g>
		<path class="st2" d="M380.3,8v1.8h1.8v1.8h-1.8v1.8h-1.8v-1.8h-1.8V9.8h1.8V8H380.3z M364.1,15.2c-2.4-2.4-2.4-6.6,0.1-9
			c1.8-1.8,4.4-2.2,6.7-1.3l0.9,0.5l1,0.7l-1.6,1.6l-0.6-0.4c-1.4-0.9-3.4-0.7-4.7,0.6c-1.5,1.5-1.6,4.2,0,5.8
			c1.5,1.6,4.2,1.6,5.6,0c0.4-0.4,0.8-1,0.9-1.6v-0.2h-3.6v-2h5.7l0.1,0.5v1.4c-0.1,1.3-0.6,2.6-1.5,3.5
			C370.7,17.6,366.5,17.6,364.1,15.2L364.1,15.2z"/>
	</g>
</g>
</svg>
