<?xml version="1.0" encoding="utf-8"?>
<!-- Generator: Adobe Illustrator 21.0.0, SVG Export Plug-In . SVG Version: 6.00 Build 0)  -->
<svg version="1.1" id="Слой_1" xmlns="http://www.w3.org/2000/svg" xmlns:xlink="http://www.w3.org/1999/xlink" x="0px" y="0px"
	 viewBox="0 0 34.8 35" style="enable-background:new 0 0 34.8 35;" xml:space="preserve">
<style type="text/css">
	.st0{filter:url(#a);}
	.st1{fill:#007AB9;}
	.st2{fill:#F1F2F2;}
</style>
<filter  filterUnits="objectBoundingBox" height="143.3%" id="a" width="112.9%" x="-6.5%" y="-20.8%">
	<feOffset  dy="2" in="SourceAlpha" result="shadowOffsetOuter1"></feOffset>
	<feGaussianBlur  in="shadowOffsetOuter1" result="shadowBlurOuter1" stdDeviation="17"></feGaussianBlur>
	<feComposite  in="shadowBlurOuter1" in2="SourceAlpha" operator="out" result="shadowBlurOuter1"></feComposite>
	
		<feColorMatrix  in="shadowBlurOuter1" result="shadowMatrixOuter1" values="0 0 0 0 0.838985167 0 0 0 0 0.854037415 0 0 0 0 0.912096088 0 0 0 1 0">
		</feColorMatrix>
	<feMerge>
		<feMergeNode  in="shadowMatrixOuter1"></feMergeNode>
		<feMergeNode  in="SourceGraphic"></feMergeNode>
	</feMerge>
</filter>
<g transform="translate(32 30)" class="st0">
	<circle class="st1" cx="-14.6" cy="-12.1" r="15.9"/>
	<path class="st2" d="M-5.1-10.8v6.5h-3.8v-6.1c0-1.5-0.5-2.6-1.9-2.6c-1,0-1.7,0.7-1.9,1.4c-0.1,0.2-0.1,0.6-0.1,0.9v6.4h-3.8
		c0,0,0.1-10.3,0-11.4h3.8v1.6c0,0,0,0,0,0h0v0c0.5-0.8,1.4-1.9,3.4-1.9C-7-15.9-5.1-14.3-5.1-10.8L-5.1-10.8z M-20.7-21.2
		c-1.3,0-2.1,0.9-2.1,2c0,1.1,0.8,2,2.1,2h0c1.3,0,2.1-0.9,2.1-2C-18.6-20.3-19.4-21.2-20.7-21.2z M-22.6-4.3h3.8v-11.4h-3.8V-4.3z"
		/>
</g>
</svg>
