<?xml version="1.0" encoding="utf-8"?>
<!-- Generator: Adobe Illustrator 21.0.0, SVG Export Plug-In . SVG Version: 6.00 Build 0)  -->
<svg version="1.1" id="Слой_1" xmlns="http://www.w3.org/2000/svg" xmlns:xlink="http://www.w3.org/1999/xlink" x="0px" y="0px"
	 viewBox="0 0 35.5 34.2" style="enable-background:new 0 0 35.5 34.2;" xml:space="preserve">
<style type="text/css">
	.st0{filter:url(#a);}
	.st1{fill:#26A6D1;}
	.st2{fill:#FFFFFF;}
</style>
<filter  filterUnits="objectBoundingBox" height="143.3%" id="a" width="112.9%" x="-6.5%" y="-20.8%">
	<feOffset  dy="2" in="SourceAlpha" result="shadowOffsetOuter1"></feOffset>
	<feGaussianBlur  in="shadowOffsetOuter1" result="shadowBlurOuter1" stdDeviation="17"></feGaussianBlur>
	<feComposite  in="shadowBlurOuter1" in2="SourceAlpha" operator="out" result="shadowBlurOuter1"></feComposite>
	
		<feColorMatrix  in="shadowBlurOuter1" result="shadowMatrixOuter1" values="0 0 0 0 0.838985167 0 0 0 0 0.854037415 0 0 0 0 0.912096088 0 0 0 1 0">
		</feColorMatrix>
	<feMerge>
		<feMergeNode  in="shadowMatrixOuter1"></feMergeNode>
		<feMergeNode  in="SourceGraphic"></feMergeNode>
	</feMerge>
</filter>
<g transform="translate(-190 7)" class="st0">
	<path class="st1" d="M207.7-4.8c8.8,0,16,7.1,16,16s-7.1,16-16,16c-8.8,0-16-7.1-16-16S198.9-4.8,207.7-4.8z"/>
	<path class="st2" d="M217.7,6c-0.7,0.3-1.5,0.5-2.2,0.6c0.8-0.5,1.4-1.2,1.7-2.1c-0.8,0.4-1.6,0.8-2.5,0.9
		c-0.7-0.8-1.8-1.2-2.8-1.2c-2.1,0-3.9,1.7-3.9,3.8c0,0.3,0,0.6,0.1,0.9c-3.1-0.1-6-1.6-8-3.9c-0.3,0.6-0.5,1.2-0.5,1.9
		c0,1.3,0.7,2.5,1.7,3.1c-0.6,0-1.2-0.2-1.8-0.5v0c0,1.8,1.3,3.4,3.1,3.7c-0.6,0.2-1.2,0.2-1.8,0.1c0.5,1.5,1.9,2.6,3.6,2.6
		c-1.4,1.1-3.1,1.6-4.8,1.6c-0.3,0-0.6,0-0.9-0.1c1.8,1.1,3.9,1.7,6,1.7c7.2,0,11.1-5.8,11.1-10.7l0-0.5
		C216.5,7.4,217.2,6.8,217.7,6L217.7,6z"/>
</g>
</svg>
