<?xml version="1.0" encoding="utf-8"?>
<!-- Generator: Adobe Illustrator 21.0.0, SVG Export Plug-In . SVG Version: 6.00 Build 0)  -->
<svg version="1.1" id="Слой_1" xmlns="http://www.w3.org/2000/svg" xmlns:xlink="http://www.w3.org/1999/xlink" x="0px" y="0px"
	 viewBox="0 0 61.8 18.4" style="enable-background:new 0 0 61.8 18.4;" xml:space="preserve">
<style type="text/css">
	.st0{filter:url(#a);}
	.st1{fill:#183753;}
	.st2{fill:#15B4F1;}
	.st3{fill:#C7CCE6;}
</style>
<filter  filterUnits="objectBoundingBox" height="128.1%" id="a" width="112.9%" x="-6.5%" y="-13.5%">
	<feOffset  dy="2" in="SourceAlpha" result="shadowOffsetOuter1"></feOffset>
	<feGaussianBlur  in="shadowOffsetOuter1" result="shadowBlurOuter1" stdDeviation="17"></feGaussianBlur>
	<feComposite  in="shadowBlurOuter1" in2="SourceAlpha" operator="out" result="shadowBlurOuter1"></feComposite>
	
		<feColorMatrix  in="shadowBlurOuter1" result="shadowMatrixOuter1" values="0 0 0 0 0.838985167 0 0 0 0 0.854037415 0 0 0 0 0.912096088 0 0 0 1 0">
		</feColorMatrix>
	<feMerge>
		<feMergeNode  in="shadowMatrixOuter1"></feMergeNode>
		<feMergeNode  in="SourceGraphic"></feMergeNode>
	</feMerge>
</filter>
<g transform="translate(-672 -132)" class="st0">
	<path class="st1" d="M679.5,132.9c0,0.1,0.2,1.5-0.4,3.2c-0.1,0.4-0.3,0.9-0.6,1.3c-0.3,0.6-0.8,1.2-1.3,1.7
		c-0.3,0.3-0.6,0.5-0.9,0.8c-1.9,1.6-2,3.4-2,4.1c0,0.8,0.3,2.7,2.1,4.1c0,0,0.1,0,0.1,0c0.1-0.5,0.6-2.2,1.9-4.1
		c0.4-0.6,0.9-1.1,1.4-1.7c0.6-0.5,1.1-1,1.7-1.6c1.3-1.4,1.1-2.4,0.8-3.6c-0.4-1.8-1.4-2.9-1.7-3.2l-0.5-0.5l-0.3-0.3l-0.3-0.2
		C679.6,132.7,679.5,132.7,679.5,132.9L679.5,132.9L679.5,132.9z"/>
	<path class="st2" d="M678.2,148.9c1.2,0.3,2.5,0.4,3.6,0.1c1.3-0.4,2.7-1.2,3.5-2.6c0.4-0.8,0.6-1.6,0.6-2.5v-0.2v-0.2v-0.2
		c0-0.1,0-0.2,0-0.2c0-0.1,0-0.2,0-0.2c0-0.1,0-0.2,0-0.2c0-0.1,0-0.2,0-0.2c0-0.1,0-0.1,0-0.2s0-0.1,0-0.2s0-0.1,0-0.2s0-0.1,0-0.2
		c0,0,0-0.1,0-0.2s0-0.1,0-0.2s0-0.1,0-0.2s0-0.1,0-0.2s0-0.1,0-0.2c0,0,0-0.1,0-0.1s0-0.1,0-0.1s0-0.1,0-0.1s0-0.1,0-0.1
		s0-0.1,0-0.1s0-0.1,0-0.1c0,0,0,0,0-0.1s0,0,0-0.1s0,0,0-0.1s0,0,0-0.1c0,0,0,0,0,0h0c0,0,0,0-0.1,0c-0.1,0.2-0.3,0.7-0.4,0.9
		c-0.7,1.5-1.9,2.7-3.1,3.8c-0.6,0.5-1.1,1.1-1.5,1.7c-0.2,0.3-0.3,0.7-0.5,1c-0.1,0.3,0,0.6-0.2,0.9c0,0.1-0.1,0.2-0.2,0.3
		c-0.2,0.1-0.4,0.2-0.6,0.2"/>
	<g>
		<path class="st1" d="M697.8,141.8l0.4-4.4c0-0.1,0.1-0.2,0.2-0.2h1.8c0.1,0,0.2,0.1,0.2,0.2l-1,11.2c0,0.1-0.1,0.2-0.2,0.2h-1.8
			c-0.1,0-0.2-0.1-0.2-0.2c0,0,0,0,0,0l0.4-4.7c0-0.1-0.1-0.2-0.2-0.2h-4.9c-0.1,0-0.2,0.1-0.2,0.2l-0.4,4.7c0,0.1-0.1,0.2-0.2,0.2
			h-1.8c-0.1,0-0.2-0.1-0.2-0.2c0,0,0,0,0,0l1-11.2c0-0.1,0.1-0.2,0.2-0.2h1.8c0.1,0,0.2,0.1,0.2,0.2l-0.4,4.4
			c0,0.1,0.1,0.2,0.2,0.2h4.9C697.7,142.1,697.8,142,697.8,141.8L697.8,141.8z"/>
		<path class="st3" d="M699.1,148.9h-1.8c-0.1,0-0.2,0-0.2-0.1c-0.1-0.1-0.1-0.1-0.1-0.2l0.4-4.7c0,0,0-0.1,0-0.1c0,0-0.1,0-0.1,0
			h-4.9c-0.1,0-0.1,0.1-0.2,0.1l-0.4,4.7c0,0.2-0.2,0.3-0.3,0.3h-1.8c-0.1,0-0.2,0-0.2-0.1c-0.1-0.1-0.1-0.1-0.1-0.2l1-11.2
			c0-0.2,0.2-0.3,0.3-0.3h1.8c0.1,0,0.2,0,0.2,0.1c0.1,0.1,0.1,0.1,0.1,0.2l-0.4,4.4c0,0,0,0.1,0,0.1c0,0,0.1,0,0.1,0h4.9
			c0.1,0,0.1-0.1,0.2-0.1l0.4-4.4c0-0.2,0.2-0.3,0.3-0.3h1.8c0.1,0,0.2,0,0.2,0.1c0.1,0.1,0.1,0.1,0.1,0.2l-1,11.2
			C699.5,148.8,699.3,148.9,699.1,148.9z M692.5,143.6h4.9c0.1,0,0.2,0,0.2,0.1c0.1,0.1,0.1,0.1,0.1,0.2l-0.4,4.7c0,0,0,0.1,0,0.1
			c0,0,0.1,0,0.1,0h1.8c0.1,0,0.1-0.1,0.2-0.1l1-11.2c0,0,0-0.1,0-0.1c0,0-0.1,0-0.1,0h-1.8c-0.1,0-0.1,0.1-0.2,0.1l-0.4,4.4
			c0,0.2-0.2,0.3-0.3,0.3h-4.9c-0.1,0-0.2,0-0.2-0.1c-0.1-0.1-0.1-0.1-0.1-0.2l0.4-4.4c0,0,0-0.1,0-0.1c0,0-0.1,0-0.1,0h-1.8
			c-0.1,0-0.1,0.1-0.2,0.1l-1,11.2c0,0,0,0.1,0,0.1c0,0,0.1,0,0.1,0h1.8c0.1,0,0.1-0.1,0.2-0.1l0.4-4.7
			C692.2,143.8,692.4,143.6,692.5,143.6L692.5,143.6z"/>
		<path class="st1" d="M703.7,140.6c0.1,0,0.2,0.1,0.2,0.2l-0.4,4.3c-0.1,1.6,0.4,2.4,1.5,2.4s1.8-0.8,1.9-2.4l0.4-4.3
			c0-0.1,0.1-0.2,0.2-0.2h1.7c0.1,0,0.2,0.1,0.2,0.2l-0.4,4.6c-0.2,2.4-1.6,3.6-4.1,3.6c-2.5,0-3.7-1.2-3.4-3.6l0.4-4.6
			c0-0.1,0.1-0.2,0.2-0.2H703.7z"/>
		<path class="st3" d="M704.9,149.2c-1.3,0-2.2-0.3-2.8-1c-0.6-0.6-0.8-1.6-0.7-2.8l0.4-4.6c0-0.2,0.2-0.3,0.3-0.3h1.7
			c0.1,0,0.2,0,0.2,0.1c0.1,0.1,0.1,0.1,0.1,0.2l-0.4,4.3c-0.1,0.9,0.1,1.6,0.4,1.9c0.2,0.3,0.6,0.4,1,0.4c1.1,0,1.7-0.8,1.8-2.3
			l0.4-4.3c0-0.2,0.2-0.3,0.3-0.3h1.7c0.1,0,0.2,0,0.2,0.1c0.1,0.1,0.1,0.1,0.1,0.2l-0.4,4.6C708.8,148,707.4,149.2,704.9,149.2
			L704.9,149.2z M702.1,140.7c-0.1,0-0.1,0.1-0.2,0.1l-0.4,4.6c-0.1,1.2,0.1,2.1,0.7,2.7c0.6,0.6,1.5,0.9,2.7,0.9
			c2.5,0,3.8-1.2,4-3.6l0.4-4.6c0,0,0-0.1,0-0.1c0,0-0.1,0-0.1,0h-1.7c-0.1,0-0.1,0.1-0.2,0.1l-0.4,4.3c-0.2,1.6-0.8,2.5-2,2.5
			c-0.5,0-0.9-0.2-1.1-0.4c-0.4-0.4-0.5-1.1-0.4-2.1l0.4-4.3c0,0,0-0.1,0-0.1c0,0-0.1,0-0.1,0H702.1L702.1,140.7z"/>
		<path class="st1" d="M718.9,144.8c-0.1,1.3-0.6,2.3-1.5,3.2s-2,1.2-3.3,1.2s-2.3-0.4-3.1-1.2c-0.7-0.8-1.1-1.9-0.9-3.1
			c0.1-1.3,0.6-2.3,1.5-3.1c0.9-0.8,2-1.2,3.3-1.2s2.3,0.4,3.1,1.2C718.8,142.4,719.1,143.4,718.9,144.8L718.9,144.8z M712.2,144.8
			c-0.1,0.8,0.1,1.4,0.5,1.9c0.4,0.5,0.9,0.7,1.6,0.7c0.7,0,1.3-0.3,1.8-0.8c0.5-0.5,0.7-1.1,0.8-1.8c0.1-0.7-0.1-1.3-0.5-1.8
			c-0.4-0.5-0.9-0.8-1.6-0.8c-0.7,0-1.3,0.3-1.8,0.8C712.6,143.4,712.3,144,712.2,144.8z"/>
		<path class="st3" d="M714.2,149.2c-1.3,0-2.4-0.4-3.1-1.3c-0.7-0.8-1.1-1.9-1-3.2c0.1-1.3,0.6-2.4,1.5-3.2c0.9-0.8,2-1.2,3.3-1.2
			c1.3,0,2.4,0.4,3.1,1.2c0.7,0.8,1.1,1.9,1,3.2c-0.1,1.3-0.6,2.4-1.5,3.2C716.6,148.8,715.5,149.2,714.2,149.2L714.2,149.2z
			 M714.9,140.4c-1.3,0-2.4,0.4-3.2,1.2c-0.9,0.8-1.4,1.8-1.5,3.1c-0.1,1.3,0.2,2.3,0.9,3.1c0.7,0.8,1.8,1.2,3,1.2
			c1.3,0,2.4-0.4,3.2-1.2c0.9-0.8,1.4-1.8,1.5-3.1c0.1-1.3-0.2-2.3-0.9-3.1C717.2,140.8,716.2,140.4,714.9,140.4L714.9,140.4z
			 M714.3,147.5c-0.7,0-1.3-0.3-1.7-0.8c-0.4-0.5-0.6-1.1-0.5-1.9c0.1-0.8,0.4-1.4,0.8-1.9c0.5-0.5,1.1-0.8,1.8-0.8s1.3,0.3,1.7,0.8
			c0.4,0.5,0.6,1.2,0.5,1.9c-0.1,0.7-0.3,1.4-0.8,1.9C715.7,147.2,715.1,147.5,714.3,147.5L714.3,147.5z M714.8,142.2
			c-0.7,0-1.2,0.3-1.7,0.7c-0.5,0.5-0.8,1.2-0.8,1.8c-0.1,0.8,0.1,1.4,0.5,1.8c0.4,0.5,0.9,0.7,1.6,0.7c0.7,0,1.2-0.3,1.7-0.8
			c0.5-0.5,0.7-1.1,0.8-1.8c0.1-0.7-0.1-1.3-0.5-1.8C716,142.4,715.5,142.2,714.8,142.2L714.8,142.2z"/>
		<path class="st1" d="M721,137h1.7c0.1,0,0.2,0.1,0.2,0.2l-0.3,3.6c0,0.2,0.2,0.3,0.3,0.2c0.6-0.4,1.4-0.7,2.4-0.7
			c1.1,0,2,0.4,2.6,1.3c0.7,0.9,0.9,1.9,0.8,3c-0.1,1.2-0.6,2.3-1.4,3.2c-0.8,0.9-1.8,1.3-2.9,1.3c-1.2,0-2.1-0.3-2.5-1l-0.1,0.6
			c0,0.1-0.1,0.2-0.2,0.2h-1.7c-0.1,0-0.2-0.1-0.2-0.2c0,0,0,0,0,0l1-11.4C720.8,137.1,720.9,137,721,137z M726.5,144.8
			c0.1-0.7-0.1-1.3-0.5-1.8c-0.3-0.4-0.8-0.7-1.3-0.8c-0.8-0.1-1.7,0.3-2.2,1c-0.4,0.5-0.6,1-0.6,1.6c-0.1,0.7,0.1,1.3,0.5,1.8
			c0.4,0.5,0.9,0.8,1.6,0.8c0.7,0,1.3-0.3,1.8-0.8C726.2,146.1,726.5,145.5,726.5,144.8L726.5,144.8z"/>
		<path class="st3" d="M724.4,149.2c-1.1,0-2-0.3-2.4-0.9l-0.1,0.4c0,0.1-0.1,0.3-0.3,0.3h-1.7c-0.1,0-0.2,0-0.2-0.1
			c-0.1-0.1-0.1-0.1-0.1-0.2l1-11.4c0-0.2,0.2-0.3,0.3-0.3h1.7c0.1,0,0.2,0,0.2,0.1c0.1,0.1,0.1,0.1,0.1,0.2l-0.3,3.7
			c0,0.1,0,0.1,0.1,0.1c0,0,0.1,0,0.2,0c0.6-0.5,1.4-0.7,2.4-0.7c1.1,0,2,0.4,2.7,1.3c0.6,0.9,0.9,1.9,0.8,3.1
			c-0.1,1.3-0.6,2.3-1.4,3.2C726.5,148.8,725.5,149.2,724.4,149.2L724.4,149.2z M721.8,147.9l0.1,0.2c0.4,0.7,1.2,1,2.4,1
			c1.1,0,2.1-0.4,2.9-1.2c0.8-0.8,1.2-1.9,1.4-3.1c0.1-1.1-0.2-2.2-0.8-3c-0.6-0.8-1.5-1.3-2.6-1.3c-0.9,0-1.7,0.2-2.3,0.7
			c-0.1,0.1-0.2,0.1-0.3,0c-0.1-0.1-0.1-0.2-0.1-0.3l0.3-3.6c0,0,0-0.1,0-0.1c0,0-0.1,0-0.1,0H721c-0.1,0-0.1,0.1-0.2,0.1l-1,11.4
			c0,0,0,0.1,0,0.1c0,0,0.1,0,0.1,0h1.7c0.1,0,0.1-0.1,0.2-0.1L721.8,147.9z M724,147.5c-0.7,0-1.2-0.3-1.7-0.8
			c-0.4-0.5-0.6-1.2-0.5-1.9c0.1-0.6,0.3-1.2,0.6-1.6c0.6-0.7,1.5-1.1,2.3-1c0.6,0.1,1,0.4,1.4,0.8c0.4,0.5,0.6,1.2,0.5,1.9
			c-0.1,0.7-0.3,1.4-0.8,1.9C725.3,147.2,724.7,147.5,724,147.5L724,147.5z M724.5,142.2c-0.7,0-1.4,0.4-1.9,1
			c-0.3,0.5-0.5,1-0.6,1.6c-0.1,0.7,0.1,1.3,0.5,1.8s0.9,0.8,1.5,0.8c0.7,0,1.3-0.3,1.7-0.7c0.5-0.5,0.7-1.1,0.8-1.8
			c0.1-0.7-0.1-1.3-0.5-1.8c-0.3-0.4-0.7-0.7-1.2-0.7C724.7,142.2,724.6,142.2,724.5,142.2L724.5,142.2z"/>
		<path class="st1" d="M731.5,148.8h-1.7c-0.1,0-0.2-0.1-0.2-0.2c0,0,0,0,0,0l0.7-7.8c0-0.1,0.1-0.2,0.2-0.2h1.7
			c0.1,0,0.2,0.1,0.2,0.2l-0.7,7.8C731.8,148.8,731.7,148.8,731.5,148.8L731.5,148.8z"/>
		<path class="st3" d="M731.5,148.9h-1.7c-0.1,0-0.2,0-0.2-0.1c-0.1-0.1-0.1-0.1-0.1-0.2l0.7-7.8c0-0.2,0.2-0.3,0.3-0.3h1.7
			c0.1,0,0.2,0,0.2,0.1c0.1,0.1,0.1,0.1,0.1,0.2l-0.7,7.8C731.8,148.8,731.7,148.9,731.5,148.9L731.5,148.9z M730.6,140.7
			c-0.1,0-0.1,0.1-0.2,0.1l-0.7,7.8c0,0,0,0.1,0,0.1c0,0,0.1,0,0.1,0h1.7c0.1,0,0.1-0.1,0.2-0.1l0.7-7.8c0,0,0-0.1,0-0.1
			c0,0-0.1,0-0.1,0H730.6z"/>
		<path class="st1" d="M732.4,139.6h-1.7c-0.1,0-0.2-0.1-0.2-0.2c0,0,0,0,0,0l0.1-1.5c0-0.1,0.1-0.2,0.2-0.2h1.7
			c0.1,0,0.2,0.1,0.2,0.2l-0.1,1.5C732.6,139.5,732.5,139.6,732.4,139.6L732.4,139.6z"/>
		<path class="st3" d="M732.4,139.7h-1.7c-0.1,0-0.2,0-0.2-0.1c-0.1-0.1-0.1-0.1-0.1-0.2l0.1-1.5c0-0.2,0.2-0.3,0.3-0.3h1.7
			c0.1,0,0.2,0,0.2,0.1c0.1,0.1,0.1,0.1,0.1,0.2l-0.1,1.5C732.7,139.6,732.5,139.7,732.4,139.7L732.4,139.7z M730.9,137.9
			c-0.1,0-0.1,0.1-0.2,0.1l-0.1,1.5c0,0,0,0.1,0,0.1c0,0,0.1,0,0.1,0h1.7c0.1,0,0.1-0.1,0.2-0.1l0.1-1.5c0,0,0-0.1,0-0.1
			c0,0-0.1,0-0.1,0H730.9z"/>
	</g>
</g>
</svg>
