<?xml version="1.0" encoding="utf-8"?>
<!-- Generator: Adobe Illustrator 21.0.0, SVG Export Plug-In . SVG Version: 6.00 Build 0)  -->
<svg version="1.1" id="Слой_1" xmlns="http://www.w3.org/2000/svg" xmlns:xlink="http://www.w3.org/1999/xlink" x="0px" y="0px"
	 viewBox="0 0 34.8 33.7" style="enable-background:new 0 0 34.8 33.7;" xml:space="preserve">
<style type="text/css">
	.st0{filter:url(#a);}
	.st1{fill:#0ACB6B;}
	.st2{fill:#FFFFFF;}
</style>
<filter  filterUnits="objectBoundingBox" height="143.3%" id="a" width="112.9%" x="-6.5%" y="-20.8%">
	<feOffset  dy="2" in="SourceAlpha" result="shadowOffsetOuter1"></feOffset>
	<feGaussianBlur  in="shadowOffsetOuter1" result="shadowBlurOuter1" stdDeviation="17"></feGaussianBlur>
	<feComposite  in="shadowBlurOuter1" in2="SourceAlpha" operator="out" result="shadowBlurOuter1"></feComposite>
	
		<feColorMatrix  in="shadowBlurOuter1" result="shadowMatrixOuter1" values="0 0 0 0 0.838985167 0 0 0 0 0.854037415 0 0 0 0 0.912096088 0 0 0 1 0">
		</feColorMatrix>
	<feMerge>
		<feMergeNode  in="shadowMatrixOuter1"></feMergeNode>
		<feMergeNode  in="SourceGraphic"></feMergeNode>
	</feMerge>
</filter>
<g transform="translate(-355 8)" class="st0">
	<path class="st1" d="M372.2-6.2c8.8,0,16,7.2,16,16s-7.2,16-16,16c-8.8,0-16-7.2-16-16C356.2,0.9,363.4-6.2,372.2-6.2z"/>
	<g>
		<path class="st2" d="M371.8,0.8c-4.8,0.2-8.6,4.2-8.6,8.9c0,1.4,0.3,2.8,1,4l-1,4.6c0,0.2,0.1,0.4,0.3,0.4c0,0,0.1,0,0.2,0
			l4.5-1.1c1.2,0.6,2.5,0.9,3.9,0.9c4.9,0.1,9-3.8,9.1-8.6C381.4,4.8,377.1,0.5,371.8,0.8L371.8,0.8z M377.2,14.6
			c-1.3,1.3-3.1,2.1-5,2c-1.1,0-2.2-0.2-3.1-0.7l-0.6-0.3l-2.8,0.7l0.6-2.8l-0.3-0.6c-0.5-1-0.8-2.1-0.8-3.2c0-1.9,0.7-3.6,2.1-4.9
			c1.3-1.3,3.1-2,5-2c1.9,0,3.7,0.7,5,2c1.3,1.3,2.1,3.1,2.1,4.9C379.3,11.5,378.6,13.3,377.2,14.6z"/>
		<path class="st2" d="M376.8,12.2l-1.7-0.5c-0.2-0.1-0.5,0-0.6,0.2l-0.4,0.4c-0.2,0.2-0.4,0.2-0.7,0.2c-0.8-0.3-2.5-1.9-2.9-2.7
			c-0.1-0.2-0.1-0.5,0-0.7l0.4-0.5c0.1-0.2,0.2-0.5,0.1-0.7l-0.7-1.7c-0.2-0.4-0.7-0.5-1-0.2c-0.5,0.4-1,1.1-1.1,1.8
			c-0.1,1.3,0.4,2.8,2.3,4.8c2.2,2.2,4,2.5,5.1,2.2c0.6-0.2,1.2-0.8,1.5-1.4C377.4,12.9,377.2,12.4,376.8,12.2L376.8,12.2z"/>
	</g>
</g>
</svg>
