<?xml version="1.0" encoding="utf-8"?>
<!-- Generator: Adobe Illustrator 21.0.0, SVG Export Plug-In . SVG Version: 6.00 Build 0)  -->
<svg version="1.1" id="Слой_1" xmlns="http://www.w3.org/2000/svg" xmlns:xlink="http://www.w3.org/1999/xlink" x="0px" y="0px"
	 viewBox="0 0 34.8 35.8" style="enable-background:new 0 0 34.8 35.8;" xml:space="preserve">
<style type="text/css">
	.st0{filter:url(#a);}
	.st1{fill:#FE5022;}
	.st2{fill:#FF3501;}
	.st3{fill:#FFFFFF;}
</style>
<filter  filterUnits="objectBoundingBox" height="143.3%" id="a" width="112.9%" x="-6.5%" y="-20.8%">
	<feOffset  dy="2" in="SourceAlpha" result="shadowOffsetOuter1"></feOffset>
	<feGaussianBlur  in="shadowOffsetOuter1" result="shadowBlurOuter1" stdDeviation="17"></feGaussianBlur>
	<feComposite  in="shadowBlurOuter1" in2="SourceAlpha" operator="out" result="shadowBlurOuter1"></feComposite>
	
		<feColorMatrix  in="shadowBlurOuter1" result="shadowMatrixOuter1" values="0 0 0 0 0.838985167 0 0 0 0 0.854037415 0 0 0 0 0.912096088 0 0 0 1 0">
		</feColorMatrix>
	<feMerge>
		<feMergeNode  in="shadowMatrixOuter1"></feMergeNode>
		<feMergeNode  in="SourceGraphic"></feMergeNode>
	</feMerge>
</filter>
<g transform="translate(32 30)" class="st0">
	<circle class="st1" cx="-14.8" cy="-11.5" r="16"/>
	<path class="st2" d="M-14.8-27.5c-0.7,0-1.4,0-2.1,0.1c7.9,1,13.9,7.7,13.9,15.9C-2.9-3.4-9,3.3-16.8,4.4c0.7,0.1,1.4,0.1,2.1,0.1
		c8.8,0,16-7.2,16-16S-5.9-27.5-14.8-27.5z"/>
	<g>
		<path class="st3" d="M-10.6-19.8c-1.2,0-2.1-1-2.1-2.1c0-1.2,1-2.1,2.1-2.1s2.1,1,2.1,2.1C-8.5-20.8-9.4-19.8-10.6-19.8z
			 M-14.8,1.1c-6,0-10.9-4.1-10.9-9.1s4.9-9.1,10.9-9.1S-3.9-13-3.9-8S-8.7,1.1-14.8,1.1z"/>
		<path class="st3" d="M-4.2-10.1c-0.5-1.7-1.6-3.3-3.2-4.5L-7.9-15l0.5-0.4c0.7-0.6,1.5-1,2.4-1c1.9,0,3.5,1.6,3.5,3.5
			c0,1.3-0.8,2.5-1.9,3.1L-4-9.4L-4.2-10.1z M-26.1-9.8c-1.2-0.6-1.9-1.8-1.9-3.1c0-1.9,1.6-3.5,3.5-3.5c0.9,0,1.8,0.3,2.4,1
			l0.5,0.4l-0.5,0.4c-1.6,1.2-2.7,2.8-3.2,4.5l-0.2,0.6C-25.5-9.4-26.1-9.8-26.1-9.8z"/>
	</g>
	<g>
		<path class="st1" d="M-19.6-8c-1.2,0-2.1-1-2.1-2.1c0-1.2,1-2.1,2.1-2.1c1.2,0,2.1,1,2.1,2.1S-18.5-8-19.6-8z M-9.9-8
			c-1.2,0-2.1-1-2.1-2.1c0-1.2,1-2.1,2.1-2.1s2.1,1,2.1,2.1S-8.7-8-9.9-8z M-9.3-4.3c-1.4,1.2-3.3,1.8-5.4,1.8s-4-0.7-5.4-1.8
			c-0.2-0.2-0.6-0.1-0.7,0.1c-0.2,0.2-0.1,0.5,0.1,0.7c1.6,1.3,3.8,2.1,6.1,2.1c2.3,0,4.5-0.7,6.1-2.1C-8.4-3.7-8.4-4-8.6-4.3
			C-8.8-4.5-9.1-4.5-9.3-4.3C-9.3-4.3-9.3-4.3-9.3-4.3z"/>
	</g>
	<path class="st3" d="M-14.2-16.4v-4.5l1.1-0.4c0.3,1.1,1.3,1.9,2.5,1.9c1.4,0,2.6-1.2,2.6-2.6c0-1.4-1.2-2.6-2.6-2.6
		c-1.3,0-2.4,0.9-2.6,2.2l-1.8,0.6c-0.2,0.1-0.4,0.3-0.4,0.5v4.9L-14.2-16.4L-14.2-16.4z M-10.6-23.5c0.9,0,1.6,0.7,1.6,1.6
		c0,0.9-0.7,1.6-1.6,1.6c-0.9,0-1.6-0.7-1.6-1.6C-12.1-22.8-11.4-23.5-10.6-23.5z"/>
</g>
</svg>
