<?xml version="1.0" encoding="utf-8"?>
<!-- Generator: Adobe Illustrator 21.0.0, SVG Export Plug-In . SVG Version: 6.00 Build 0)  -->
<svg version="1.1" id="Слой_1" xmlns="http://www.w3.org/2000/svg" xmlns:xlink="http://www.w3.org/1999/xlink" x="0px" y="0px"
	 viewBox="0 0 34.5 35" style="enable-background:new 0 0 34.5 35;" xml:space="preserve">
<style type="text/css">
	.st0{filter:url(#a);}
	.st1{fill:#7F40BD;}
	.st2{fill:#FFFFFF;}
</style>
<filter  filterUnits="objectBoundingBox" height="143.3%" id="a" width="112.9%" x="-6.5%" y="-20.8%">
	<feOffset  dy="2" in="SourceAlpha" result="shadowOffsetOuter1"></feOffset>
	<feGaussianBlur  in="shadowOffsetOuter1" result="shadowBlurOuter1" stdDeviation="17"></feGaussianBlur>
	<feComposite  in="shadowBlurOuter1" in2="SourceAlpha" operator="out" result="shadowBlurOuter1"></feComposite>
	
		<feColorMatrix  in="shadowBlurOuter1" result="shadowMatrixOuter1" values="0 0 0 0 0.838985167 0 0 0 0 0.854037415 0 0 0 0 0.912096088 0 0 0 1 0">
		</feColorMatrix>
	<feMerge>
		<feMergeNode  in="shadowMatrixOuter1"></feMergeNode>
		<feMergeNode  in="SourceGraphic"></feMergeNode>
	</feMerge>
</filter>
<g transform="translate(32 30)" class="st0">
	<circle class="st1" cx="-14.9" cy="-12.1" r="15.9"/>
	<g>
		<path class="st2" d="M-15.6-21.1c0.2-0.1,0.2-0.1,0.7-0.1c0.2,0,0.6,0,0.8,0.1c1,0.1,1.7,0.3,2.6,0.8c0.9,0.5,1.5,0.9,2.2,1.7
			c0.7,0.7,1.1,1.3,1.5,2.2c0.6,1.2,0.9,2.7,1,4.3c0,0.5,0,0.7-0.1,0.8c-0.2,0.3-0.7,0.3-0.9-0.1c-0.1-0.1-0.1-0.2-0.1-0.6
			c0-0.7-0.1-1.1-0.2-1.6c-0.3-2-1.3-3.7-2.7-4.8c-1.2-1-2.3-1.3-4-1.5c-0.6,0-0.7,0-0.8-0.1C-15.8-20.4-15.8-20.9-15.6-21.1"/>
		<path class="st2" d="M-11.9-17.4c-0.6-0.4-1.4-0.7-2.2-0.7c-0.3,0-0.4-0.1-0.5-0.2c-0.2-0.2-0.2-0.5-0.1-0.7
			c0.1-0.3,0.4-0.3,1.1-0.2c1.7,0.3,3.1,1.2,3.9,2.6c0.5,0.8,0.8,1.8,0.9,2.8c0,0.4,0,1,0,1.2c0,0.1-0.1,0.3-0.3,0.3
			c-0.1,0.1-0.4,0.1-0.5,0c-0.2-0.1-0.3-0.3-0.3-0.8c0-0.8-0.2-1.7-0.5-2.3C-10.7-16.3-11.2-16.9-11.9-17.4 M-11.9-13.3
			c-0.2,0.1-0.4,0.1-0.6,0c-0.1-0.1-0.2-0.2-0.2-0.4c0-0.3-0.1-0.5-0.2-0.8c-0.2-0.5-0.6-0.7-1.3-0.8c-0.3,0-0.4-0.1-0.5-0.2
			c-0.2-0.2-0.1-0.5,0.1-0.7c0.1-0.1,0.1-0.1,0.3,0c0.1,0,0.3,0,0.4,0.1c0.5,0.1,0.9,0.3,1.2,0.6c0.4,0.4,0.7,0.8,0.7,1.5
			C-11.7-13.7-11.7-13.5-11.9-13.3 M-5.8-5.7c0-0.3-0.1-0.5-0.3-0.7S-7.6-7.6-8.2-8C-8.7-8.4-9.5-8.8-9.8-9
			c-0.4-0.2-0.9-0.3-1.3-0.1C-11.3-9-11.3-9-11.4-9c-0.2,0.1-0.4,0.3-0.8,0.7c-0.3,0.3-0.5,0.6-0.5,0.6c0,0,0,0,0,0
			c0,0-0.1,0.1-0.2,0.1c-0.4,0.2-1,0.1-1.9-0.3c-0.7-0.3-1.3-0.8-2.1-1.4c-0.6-0.5-1.2-1.2-1.6-1.7c-0.5-0.7-0.8-1.6-0.8-2.1
			c0-0.2,0.1-0.5,0.2-0.7l0,0l0,0c0,0,0.1-0.1,0.1-0.1c0.1-0.1,0.3-0.3,0.5-0.4c0.8-0.6,0.9-0.8,1-1.1c0.1-0.3,0-0.7-0.3-1.3
			c-0.6-1-2.2-3-2.8-3.4c-0.1-0.1-0.3-0.1-0.4-0.2c-0.3-0.1-0.6-0.1-0.8-0.1c-0.3,0.1-0.7,0.3-1.5,0.8c-0.5,0.3-1.1,0.9-1.3,1.2
			c-0.4,0.6-0.3,1.1,0.1,2.2c0.4,1,0.9,2.1,1.5,3.1l0,0c0.1,0.2,0.3,0.4,0.4,0.6c0,0,0,0,0,0.1c0.1,0.2,0.3,0.4,0.4,0.6
			c0.1,0.1,0.1,0.2,0.2,0.2c0.1,0.2,0.2,0.3,0.3,0.4c0.2,0.2,0.3,0.4,0.5,0.7C-19.2-8-17-6-14.4-4.5c0,0,0.1,0,0.1,0.1l1.2,0.7
			c0.1,0,0.1,0.1,0.2,0.1c0.4,0.2,0.8,0.4,1.2,0.6c0,0,0.1,0,0.1,0.1c0.4,0.2,0.9,0.4,1.3,0.6c0.6,0.2,0.8,0.3,1.2,0.2
			c0.2,0,0.4,0,0.6-0.1C-8.3-2.4-8-2.5-7.8-2.7c0.1,0,0.1-0.1,0.2-0.1c0.1,0,0.1-0.1,0.2-0.2C-7-3.3-6.6-3.7-6.3-4.1
			c0.2-0.2,0.4-0.5,0.5-0.8C-5.8-5.2-5.8-5.4-5.8-5.7"/>
	</g>
</g>
</svg>
