<?xml version="1.0" encoding="utf-8"?>
<!-- Generator: Adobe Illustrator 21.0.0, SVG Export Plug-In . SVG Version: 6.00 Build 0)  -->
<svg version="1.1" id="Слой_1" xmlns="http://www.w3.org/2000/svg" xmlns:xlink="http://www.w3.org/1999/xlink" x="0px" y="0px"
	 viewBox="0 0 34.5 34.8" style="enable-background:new 0 0 34.5 34.8;" xml:space="preserve">
<style type="text/css">
	.st0{filter:url(#a);}
	.st1{fill:#4D76A1;}
	.st2{fill:#FFFFFF;}
</style>
<filter  filterUnits="objectBoundingBox" height="143.3%" id="a" width="112.9%" x="-6.5%" y="-20.8%">
	<feOffset  dy="2" in="SourceAlpha" result="shadowOffsetOuter1"></feOffset>
	<feGaussianBlur  in="shadowOffsetOuter1" result="shadowBlurOuter1" stdDeviation="17"></feGaussianBlur>
	<feComposite  in="shadowBlurOuter1" in2="SourceAlpha" operator="out" result="shadowBlurOuter1"></feComposite>
	
		<feColorMatrix  in="shadowBlurOuter1" result="shadowMatrixOuter1" values="0 0 0 0 0.838985167 0 0 0 0 0.854037415 0 0 0 0 0.912096088 0 0 0 1 0">
		</feColorMatrix>
	<feMerge>
		<feMergeNode  in="shadowMatrixOuter1"></feMergeNode>
		<feMergeNode  in="SourceGraphic"></feMergeNode>
	</feMerge>
</filter>
<g transform="translate(32 30)" class="st0">
	<circle class="st1" cx="-14.9" cy="-12.6" r="15.9"/>
	<path class="st2" d="M-15.5-5.6h1.2c0,0,0.4,0,0.6-0.2c0.2-0.2,0.2-0.5,0.2-0.5s0-1.7,0.8-1.9C-12-8.6-11-6.7-9.9-6
		c0.8,0.5,1.4,0.4,1.4,0.4l2.8,0c0,0,1.5-0.1,0.8-1.2C-5.1-7-5.4-7.7-7.1-9.3c-1.7-1.6-1.5-1.4,0.6-4.2c1.3-1.7,1.8-2.8,1.6-3.2
		C-5-17.1-5.9-17-5.9-17l-3.1,0c0,0-0.2,0-0.4,0.1c-0.2,0.1-0.3,0.3-0.3,0.3s-0.5,1.3-1.2,2.4c-1.4,2.4-2,2.5-2.2,2.3
		c-0.5-0.3-0.4-1.4-0.4-2.1c0-2.3,0.3-3.3-0.7-3.5c-0.3-0.1-0.6-0.1-1.5-0.1c-1.1,0-2.1,0-2.6,0.3c-0.4,0.2-0.6,0.6-0.5,0.6
		c0.2,0,0.7,0.1,0.9,0.5c0.3,0.4,0.3,1.4,0.3,1.4s0.2,2.7-0.4,3c-0.4,0.2-1-0.2-2.2-2.4c-0.6-1.1-1.1-2.3-1.1-2.3s-0.1-0.2-0.3-0.4
		C-21.7-16.9-22-17-22-17l-3,0c0,0-0.4,0-0.6,0.2c-0.1,0.2,0,0.5,0,0.5s2.3,5.5,5,8.2C-18.2-5.5-15.5-5.6-15.5-5.6z"/>
</g>
</svg>
