<?xml version="1.0" encoding="utf-8"?>
<!-- Generator: Adobe Illustrator 21.0.0, SVG Export Plug-In . SVG Version: 6.00 Build 0)  -->
<svg version="1.1" id="Слой_1" xmlns="http://www.w3.org/2000/svg" xmlns:xlink="http://www.w3.org/1999/xlink" x="0px" y="0px"
	 viewBox="0 0 34.2 34.7" style="enable-background:new 0 0 34.2 34.7;" xml:space="preserve">
<style type="text/css">
	.st0{filter:url(#a);}
	.st1{fill:#01AAF1;}
	.st2{fill:#FFFFFF;}
</style>
<filter  filterUnits="objectBoundingBox" height="143.3%" id="a" width="112.9%" x="-6.5%" y="-20.8%">
	<feOffset  dy="2" in="SourceAlpha" result="shadowOffsetOuter1"></feOffset>
	<feGaussianBlur  in="shadowOffsetOuter1" result="shadowBlurOuter1" stdDeviation="17"></feGaussianBlur>
	<feComposite  in="shadowBlurOuter1" in2="SourceAlpha" operator="out" result="shadowBlurOuter1"></feComposite>
	
		<feColorMatrix  in="shadowBlurOuter1" result="shadowMatrixOuter1" values="0 0 0 0 0.838985167 0 0 0 0 0.854037415 0 0 0 0 0.912096088 0 0 0 1 0">
		</feColorMatrix>
	<feMerge>
		<feMergeNode  in="shadowMatrixOuter1"></feMergeNode>
		<feMergeNode  in="SourceGraphic"></feMergeNode>
	</feMerge>
</filter>
<g transform="translate(-25 8)" class="st0">
	<path class="st1" d="M42.2-5.2c8.8,0,16,7.1,16,16s-7.1,16-16,16c-8.8,0-16-7.1-16-16C26.2,1.9,33.4-5.2,42.2-5.2z"/>
	<path class="st2" d="M49.5,11.5c0.7-4.3-2.3-8.3-6.6-9c-0.8-0.1-1.6-0.1-2.5,0C38.3,1.1,35.3,1.8,34,4C33,5.5,33,7.5,34,9
		c-0.7,4.3,2.3,8.3,6.6,9c0.8,0.1,1.6,0.1,2.5,0c2.2,1.4,5.2,0.7,6.6-1.6C50.5,15,50.5,13,49.5,11.5z M45.8,14.3
		c-0.3,0.5-0.8,0.8-1.4,1.1c-0.6,0.3-1.3,0.4-2.1,0.4c-1,0-1.8-0.2-2.5-0.5c-0.5-0.3-0.8-0.6-1.1-1c-0.3-0.4-0.4-0.9-0.4-1.3
		c0-0.2,0.1-0.5,0.3-0.6c0.2-0.2,0.4-0.3,0.7-0.3c0.2,0,0.4,0.1,0.6,0.2c0.2,0.1,0.3,0.3,0.4,0.6c0.1,0.3,0.3,0.6,0.4,0.8
		c0.1,0.2,0.3,0.4,0.6,0.5c0.3,0.1,0.6,0.2,1,0.2c0.6,0,1.1-0.1,1.4-0.4c0.4-0.3,0.5-0.6,0.5-1c0-0.3-0.1-0.6-0.3-0.8
		c-0.2-0.2-0.5-0.4-0.8-0.4c-0.4-0.1-0.8-0.2-1.3-0.3c-0.7-0.2-1.3-0.4-1.8-0.6c-0.5-0.2-0.9-0.5-1.2-0.9c-0.3-0.4-0.4-0.9-0.4-1.4
		c0-0.5,0.2-1,0.5-1.4c0.3-0.4,0.7-0.7,1.3-1c0.6-0.2,1.2-0.3,2-0.3c0.6,0,1.1,0.1,1.6,0.2c0.4,0.1,0.8,0.3,1.1,0.6
		c0.3,0.2,0.5,0.5,0.7,0.8c0.1,0.3,0.2,0.5,0.2,0.8c0,0.2-0.1,0.5-0.3,0.7c-0.2,0.2-0.4,0.3-0.7,0.3c-0.2,0-0.4-0.1-0.6-0.2
		c-0.1-0.1-0.3-0.3-0.4-0.6c-0.2-0.4-0.4-0.6-0.6-0.8c-0.2-0.2-0.6-0.3-1.2-0.3c-0.5,0-0.9,0.1-1.2,0.3c-0.3,0.2-0.5,0.5-0.5,0.8
		c0,0.2,0.1,0.3,0.2,0.5C40.6,8.9,40.8,9,41,9.1c0.2,0.1,0.4,0.2,0.6,0.2c0.2,0.1,0.5,0.1,1,0.2c0.6,0.1,1.1,0.3,1.5,0.4
		c0.5,0.2,0.8,0.3,1.2,0.6c0.3,0.2,0.6,0.5,0.8,0.8c0.2,0.3,0.3,0.8,0.3,1.2C46.3,13.3,46.1,13.8,45.8,14.3z"/>
</g>
</svg>
