<?xml version="1.0" encoding="utf-8"?>
<!-- Generator: Adobe Illustrator 21.0.0, SVG Export Plug-In . SVG Version: 6.00 Build 0)  -->
<svg version="1.1" id="Слой_1" xmlns="http://www.w3.org/2000/svg" xmlns:xlink="http://www.w3.org/1999/xlink" x="0px" y="0px"
	 viewBox="0 0 34.2 34.2" style="enable-background:new 0 0 34.2 34.2;" xml:space="preserve">
<style type="text/css">
	.st0{filter:url(#a);}
	.st1{fill:#2319DC;}
	.st2{fill:#FFFFFF;}
</style>
<filter  filterUnits="objectBoundingBox" height="143.3%" id="a" width="112.9%" x="-6.5%" y="-20.8%">
	<feOffset  dy="2" in="SourceAlpha" result="shadowOffsetOuter1"></feOffset>
	<feGaussianBlur  in="shadowOffsetOuter1" result="shadowBlurOuter1" stdDeviation="17"></feGaussianBlur>
	<feComposite  in="shadowBlurOuter1" in2="SourceAlpha" operator="out" result="shadowBlurOuter1"></feComposite>
	
		<feColorMatrix  in="shadowBlurOuter1" result="shadowMatrixOuter1" values="0 0 0 0 0.838985167 0 0 0 0 0.854037415 0 0 0 0 0.912096088 0 0 0 1 0">
		</feColorMatrix>
	<feMerge>
		<feMergeNode  in="shadowMatrixOuter1"></feMergeNode>
		<feMergeNode  in="SourceGraphic"></feMergeNode>
	</feMerge>
</filter>
<g transform="translate(-190 -123)" class="st0">
	<path class="st1" d="M207,125.2c8.8,0,16,7.1,16,16s-7.1,16-16,16c-8.8,0-16-7.1-16-16C191,132.4,198.1,125.2,207,125.2z"/>
	<path class="st2" d="M203.5,138.8c0.1,1.3-0.6,2.4-1.6,2.4s-1.8-0.9-1.9-2.2c-0.1-1.3,0.6-2.4,1.6-2.4
		C202.5,136.6,203.4,137.6,203.5,138.8z M210,133.6c-0.9-0.2-1.9,0.6-2.3,1.8c-0.3,1.2,0.2,2.4,1.1,2.7c0.9,0.2,1.9-0.6,2.3-1.8
		C211.5,134.6,210.2,133.6,210,133.6L210,133.6z M212.2,137.7c-1,0-1.7,0.9-1.7,2.3c0,1.4,0.8,2.1,1.8,2.1c1,0,1.7-0.7,1.7-2.1
		C214,138.2,212.4,137.7,212.2,137.7z M205.1,133.2c-0.9,0-1.7,1-1.7,2.3s0.8,2.3,1.7,2.3s1.7-1,1.7-2.3S206.1,133.2,205.1,133.2z
		 M204.9,140.4c-0.5,0.8-1.1,1.5-2.3,2.5c-1.2,1-1.7,1.6-1.7,2.6c0,1,0.6,2.6,2.2,2.6s2.4-0.4,3.7-0.4s2.1,0.5,3.8,0.5
		s2.3-1.5,2.3-2.5c0-1-0.3-1.6-1.6-2.7c-0.8-0.7-1.5-1.3-2.6-2.8c-0.5-0.8-1.2-0.8-1.8-0.8C206.2,139.4,205.5,139.6,204.9,140.4
		L204.9,140.4z"/>
</g>
</svg>
