<?xml version="1.0" encoding="utf-8"?>
<!-- Generator: Adobe Illustrator 21.0.0, SVG Export Plug-In . SVG Version: 6.00 Build 0)  -->
<svg version="1.1" id="Слой_1" xmlns="http://www.w3.org/2000/svg" xmlns:xlink="http://www.w3.org/1999/xlink" x="0px" y="0px"
	 viewBox="0 0 35 34.5" style="enable-background:new 0 0 35 34.5;" xml:space="preserve">
<style type="text/css">
	.st0{filter:url(#a);}
	.st1{fill:#E7172D;}
	.st2{fill:#FFFFFF;}
</style>
<filter  filterUnits="objectBoundingBox" height="143.3%" id="a" width="112.9%" x="-6.5%" y="-20.8%">
	<feOffset  dy="2" in="SourceAlpha" result="shadowOffsetOuter1"></feOffset>
	<feGaussianBlur  in="shadowOffsetOuter1" result="shadowBlurOuter1" stdDeviation="17"></feGaussianBlur>
	<feComposite  in="shadowBlurOuter1" in2="SourceAlpha" operator="out" result="shadowBlurOuter1"></feComposite>
	
		<feColorMatrix  in="shadowBlurOuter1" result="shadowMatrixOuter1" values="0 0 0 0 0.838985167 0 0 0 0 0.854037415 0 0 0 0 0.912096088 0 0 0 1 0">
		</feColorMatrix>
	<feMerge>
		<feMergeNode  in="shadowMatrixOuter1"></feMergeNode>
		<feMergeNode  in="SourceGraphic"></feMergeNode>
	</feMerge>
</filter>
<g transform="translate(32 30)" class="st0">
	<circle class="st1" cx="-14.4" cy="-12.6" r="15.9"/>
	<path class="st2" d="M-8.8-12.7c-0.3-0.1-0.5-0.1-0.3-0.5c0.3-0.8,0.4-1.6,0-2.1c-0.7-1-2.5-0.9-4.6,0c0,0-0.7,0.3-0.5-0.2
		c0.3-1,0.3-1.9-0.2-2.4c-1.1-1.1-4.2,0-6.7,2.7c-1.9,2-3.1,4-3.1,5.8c0,3.4,4.4,5.7,8.6,5.7c5.6,0,9.3-3.5,9.3-6.1
		C-6.3-11.4-7.6-12.3-8.8-12.7z M-15.6-5.3C-19-5-22-6.5-22.2-8.7c-0.2-2.2,2.4-4.3,5.8-4.6c3.4-0.3,6.3,1.2,6.6,3.4
		C-9.6-7.7-12.2-5.6-15.6-5.3z M-3.2-15.5c0-3.5-2.8-6.3-6.3-6.3c-0.4,0-0.7,0.3-0.7,0.7c0,0.4,0.3,0.7,0.7,0.7
		c2.7,0,4.9,2.2,4.9,4.8c0,0.4,0.3,0.7,0.7,0.7C-3.6-14.7-3.3-15.1-3.2-15.5C-3.3-15.5-3.3-15.5-3.2-15.5L-3.2-15.5z M-6.2-15.6
		c-0.3-1.6-1.6-2.9-3.3-3.3c-0.4-0.1-0.8,0.2-0.9,0.5c-0.1,0.4,0.2,0.8,0.5,0.9c0,0,0,0,0,0c1.1,0.2,1.9,1,2.1,2.1
		c0.1,0.4,0.5,0.6,0.9,0.5C-6.4-14.8-6.1-15.2-6.2-15.6L-6.2-15.6z M-17.4-11.2c-1.4,0.3-2.3,1.4-2.1,2.5c0.2,1.1,1.5,1.8,2.9,1.6
		c1.4-0.3,2.3-1.4,2.1-2.5C-14.7-10.8-16-11.5-17.4-11.2z"/>
</g>
</svg>
