<?xml version="1.0" encoding="UTF-8" standalone="no"?>
<!-- Created with Inkscape (http://www.inkscape.org/) -->

<svg
   xmlns:dc="http://purl.org/dc/elements/1.1/"
   xmlns:cc="http://creativecommons.org/ns#"
   xmlns:rdf="http://www.w3.org/1999/02/22-rdf-syntax-ns#"
   xmlns:svg="http://www.w3.org/2000/svg"
   xmlns="http://www.w3.org/2000/svg"
   xmlns:sodipodi="http://sodipodi.sourceforge.net/DTD/sodipodi-0.dtd"
   xmlns:inkscape="http://www.inkscape.org/namespaces/inkscape"
   width="1024"
   height="1024"
   viewBox="0 0 298.02667 298.02667"
   version="1.1"
   id="svg8"
   inkscape:version="0.92.1 r15371"
   sodipodi:docname="escrow.svg"
   inkscape:export-filename="D:\serverdoc\escrowblock_wallet\public\escrow_1024.png"
   inkscape:export-xdpi="96.000008"
   inkscape:export-ydpi="96.000008">
  <defs
     id="defs2" />
  <sodipodi:namedview
     id="base"
     pagecolor="#ffffff"
     bordercolor="#666666"
     borderopacity="1.0"
     inkscape:pageopacity="0.0"
     inkscape:pageshadow="2"
     inkscape:zoom="0.24748737"
     inkscape:cx="325.59627"
     inkscape:cy="834.25595"
     inkscape:document-units="mm"
     inkscape:current-layer="g4489"
     showgrid="true"
     inkscape:window-width="1366"
     inkscape:window-height="705"
     inkscape:window-x="-8"
     inkscape:window-y="-8"
     inkscape:window-maximized="1"
     scale-x="1.1"
     units="px"
     inkscape:snap-to-guides="true"
     inkscape:snap-grids="false">
    <inkscape:grid
       type="xygrid"
       id="grid5551" />
  </sodipodi:namedview>
  <metadata
     id="metadata5">
    <rdf:RDF>
      <cc:Work
         rdf:about="">
        <dc:format>image/svg+xml</dc:format>
        <dc:type
           rdf:resource="http://purl.org/dc/dcmitype/StillImage" />
        <dc:title></dc:title>
      </cc:Work>
    </rdf:RDF>
  </metadata>
  <g
     inkscape:label="Layer 1"
     inkscape:groupmode="layer"
     id="layer1"
     transform="translate(0,-28.673315)">
    <g
       id="g4489"
       transform="rotate(46.070605,146.16888,172.79844)">
      <g
         id="g4494"
         transform="rotate(-45.967503,152.38988,170.02653)">
        <path
           style="opacity:1;fill:#d0d234;fill-opacity:1;fill-rule:evenodd;stroke-width:0.05561187"
           d="m 178.73939,122.63431 c 0.0419,-0.476 0.21847,-1.52809 0.34071,-2.00598 0.3627,-1.41732 1.04736,-2.81499 1.99105,-4.06346 0.44519,-0.58944 3.64187,-3.94208 4.19826,-4.40523 1.60853,-1.33466 3.45743,-2.18533 5.50281,-2.53182 0.72347,-0.12259 2.52788,-0.14862 3.22289,-0.0459 2.14524,0.31525 3.98889,1.10655 5.63596,2.41821 0.73695,0.58649 6.74859,6.39546 7.14175,6.90168 1.36045,1.74706 2.12656,3.67124 2.35693,5.92089 0.17242,1.68214 -0.13578,3.76936 -0.79017,5.34103 l -0.13905,0.33447 -6.78467,-6.46368 c -6.76015,-6.4401 -6.7864,-6.46426 -7.24664,-6.67767 -1.17774,-0.54581 -2.53476,-0.47264 -3.6178,0.19529 -0.47406,0.29249 -3.61613,3.60264 -3.88106,4.08672 -0.34672,0.63721 -0.43049,1.03504 -0.4069,1.92882 0.0173,0.66312 0.0405,0.8313 0.15573,1.13662 0.33391,0.88532 0.0947,0.63914 7.28521,7.50461 3.67524,3.50728 6.67949,6.39667 6.68156,6.41515 8.1e-4,0.0503 -1.02073,0.47203 -1.59759,0.65975 -2.76248,0.89905 -5.85594,0.66882 -8.45931,-0.62943 -0.68762,-0.34298 -1.11018,-0.60685 -1.76147,-1.10093 -0.67425,-0.5113 -6.9534,-6.53416 -7.3899,-7.09086 -1.15118,-1.4606 -1.87491,-3.0234 -2.24407,-4.84641 -0.12808,-0.63192 -0.24328,-2.4011 -0.19456,-2.98453 z m 15.24079,2.0449 1.28915,-1.35173 13.55946,12.93222 13.55942,12.93211 -1.28909,1.35175 -1.28912,1.3517 -13.55945,-12.93214 -13.5595,-12.9322 z m 11.9328,23.92931 c 0.0495,-0.69554 0.17591,-1.45987 0.34683,-2.09422 0.17295,-0.64165 0.55082,-1.70967 0.60542,-1.71089 0.015,10e-4 3.04619,2.86599 6.72446,6.37008 5.73716,5.4628 6.74412,6.40156 7.08232,6.58726 0.61033,0.33508 1.02596,0.44393 1.74379,0.45743 0.77459,0.0148 1.29148,-0.10312 1.91962,-0.43694 0.42212,-0.22455 0.54828,-0.34341 2.18908,-2.06348 1.68651,-1.76501 1.74831,-1.84068 1.96011,-2.30321 0.27579,-0.6022 0.3738,-1.06823 0.35967,-1.71018 -0.0137,-0.62084 -0.1695,-1.20808 -0.46538,-1.75291 -0.20054,-0.36981 -0.65476,-0.81549 -6.98759,-6.86558 l -6.77307,-6.47018 0.32616,-0.1554 c 0.57224,-0.27232 1.57322,-0.61049 2.28612,-0.77162 3.3665,-0.76122 6.84801,0.0313 9.49458,2.1603 0.7353,0.59156 6.76856,6.39488 7.14259,6.87025 1.66192,2.11235 2.53089,4.66092 2.47445,7.25645 -0.0552,2.47635 -0.81715,4.66916 -2.32349,6.67463 -0.41611,0.55413 -3.61431,3.91462 -4.18052,4.39251 -2.10174,1.77487 -4.69747,2.71195 -7.41853,2.67863 -2.04261,-0.0252 -3.79512,-0.49961 -5.54267,-1.50136 -0.94619,-0.54258 -1.37008,-0.9091 -4.67521,-4.04795 -3.77258,-3.58441 -4.12537,-3.96556 -4.85447,-5.26179 -1.08272,-1.92623 -1.58584,-4.1398 -1.43273,-6.30296 z"
           id="path4520-1-18"
           inkscape:connector-curvature="0"
           inkscape:export-xdpi="238"
           inkscape:export-ydpi="238" />
        <path
           style="fill:#620e77;fill-opacity:1;stroke-width:0.66362607"
           d="m 73.91169,199.05919 6.721735,-6.94413 -45.665211,-44.07777 71.301846,-73.811917 45.52352,43.614367 42.10864,-43.640847 76.65622,73.843707 c -38.27827,40.1229 -85.27989,88.44748 -120.14026,124.71607 z m 90.15875,44.82445 -8.94216,-8.78874 -13.78922,14.3602 9.04415,8.68291 z m -16.12319,-15.68247 -9.57347,-9.19284 -13.78925,14.36024 9.57353,9.19282 z m 29.71537,1.73138 -26.35574,-25.2504 9.18196,-9.58391 26.35574,25.25042 9.18196,-9.58392 -26.35574,-25.25042 9.18196,-9.58392 26.35575,25.25042 9.18196,-9.58392 -44.60578,-43.62714 -32.17293,33.50914 -24.53405,-23.55755 31.8294,-32.89367 -38.33559,-36.727921 -57.474876,59.865271 38.218699,36.81224 13.847797,-14.30378 69.613,66.44699 z m -46.46991,-17.8178 -9.57349,-9.19283 -13.78924,14.36028 9.57349,9.19283 z m -19.14806,-18.38456 -9.57344,-9.19283 -13.789225,14.36022 9.573503,9.19283 z m 143.84678,-45.12699 -62.1108,-59.739643 -66.93599,69.406353 9.58393,9.18195 32.13686,-33.54368 52.71152,50.50078 z"
           id="path4507-4-6"
           inkscape:connector-curvature="0"
           sodipodi:nodetypes="ccccccccccccccccccccccccccccccccccccccccccccccccccccccc"
           inkscape:export-xdpi="238"
           inkscape:export-ydpi="238" />
        <path
           style="opacity:1;fill:#d0d234;fill-opacity:1;fill-rule:evenodd;stroke-width:0.05753972"
           d="m 78.511979,163.48062 c -0.492186,-0.0466 -1.579175,-0.23886 -2.07255,-0.36956 -1.4633,-0.38735 -2.903598,-1.10765 -4.187206,-2.09463 -0.606043,-0.46562 -4.047567,-3.80158 -4.521989,-4.38125 -1.367172,-1.67557 -2.231509,-3.59579 -2.57258,-5.71493 -0.120801,-0.74957 -0.132001,-2.61672 -0.02017,-3.33492 0.344692,-2.21682 1.178908,-4.11757 2.550035,-5.81051 0.613104,-0.75747 6.674491,-6.92779 7.20159,-7.33026 1.819182,-1.3926 3.81652,-2.16885 6.146084,-2.38805 1.741823,-0.16378 3.898706,0.17253 5.519257,0.86313 l 0.344825,0.14655 -6.745387,6.9645 c -6.720738,6.93935 -6.746004,6.96625 -6.970719,7.44064 -0.574755,1.21387 -0.510614,2.61856 0.171161,3.7448 0.298583,0.49295 3.696568,3.77203 4.195171,4.05026 0.656309,0.36419 1.067218,0.45426 1.992158,0.43747 0.686176,-0.0118 0.860378,-0.0357 1.177304,-0.15166 0.918815,-0.33795 0.662074,-0.0928 7.826675,-7.47351 3.660024,-3.7726 6.675142,-6.85627 6.694262,-6.85823 0.05218,-7.9e-4 0.479656,1.06006 0.668972,1.65853 0.906643,2.86581 0.642018,6.0644 -0.723377,8.74688 -0.3607,0.70852 -0.63733,1.14347 -1.154072,1.81308 -0.53476,0.69322 -6.819746,7.13848 -7.399436,7.58533 -1.521015,1.17859 -3.14409,1.91406 -5.033426,2.2805 -0.654888,0.12718 -2.486273,0.2312 -3.089513,0.17583 z m 2.245673,-15.7511 -1.387556,-1.34531 13.495718,-13.9188 13.495596,-13.91876 1.38758,1.34526 1.38751,1.34533 -13.495591,13.91878 -13.495721,13.91876 z m 24.859758,-12.14197 c -0.71925,-0.0565 -1.50892,-0.19466 -2.16375,-0.37685 -0.66241,-0.18447 -1.76419,-0.58448 -1.765,-0.64099 0.001,-0.015 2.99121,-3.12726 6.64799,-6.903 5.70094,-5.88928 6.68077,-6.9231 6.87578,-7.27148 0.35187,-0.62855 0.46801,-1.05769 0.48817,-1.80022 0.0222,-0.80132 -0.0957,-1.33713 -0.43571,-1.98988 -0.22896,-0.43866 -0.35062,-0.57016 -2.11629,-2.28245 -1.81173,-1.75998 -1.88949,-1.82458 -2.36626,-2.04767 -0.62073,-0.29037 -1.10203,-0.39583 -1.76628,-0.38656 -0.64249,0.009 -1.25143,0.16501 -1.81765,0.46654 -0.38426,0.20422 -0.84928,0.67045 -7.16291,7.17106 l -6.751952,6.95241 -0.158002,-0.33879 c -0.27695,-0.59437 -0.618217,-1.63286 -0.778874,-2.37184 -0.758835,-3.48956 0.09068,-7.08487 2.316117,-9.80501 0.618282,-0.75572 6.674041,-6.94839 7.169051,-7.3313 2.19967,-1.70146 4.84391,-2.57879 7.52881,-2.49829 2.56165,0.0787 4.82388,0.88528 6.88597,2.46088 0.56978,0.43524 4.01935,3.77283 4.50895,4.36274 1.81844,2.18965 2.76588,4.88332 2.70817,7.69832 -0.0434,2.11312 -0.54927,3.92226 -1.60061,5.72177 -0.56944,0.97433 -0.95227,1.40981 -4.22803,4.80261 -3.74069,3.87268 -4.13802,4.23445 -5.48538,4.97774 -2.00215,1.10377 -4.29669,1.60543 -6.53343,1.42858 z"
           id="path4520-1-18-9"
           inkscape:connector-curvature="0"
           inkscape:export-xdpi="238"
           inkscape:export-ydpi="238" />
      </g>
    </g>
  </g>
</svg>
